<svg id="Layer_1" data-name="Layer 1" xmlns="http://www.w3.org/2000/svg" viewBox="0 0 1679.59 1679.59"><defs><style>.cls-1,.cls-2{fill:#fff;}.cls-2{font-size:600px;font-family:Fifty-Regular, Fifty;}</style></defs><title>Mixed Signals Logo</title><path class="cls-1" d="M1000,191.41a805.91,805.91,0,0,1,161.23,16.25A795.2,795.2,0,0,1,1447.15,328,802.24,802.24,0,0,1,1737,679.91,795.45,795.45,0,0,1,1783.55,830a808,808,0,0,1,0,322.46,795.2,795.2,0,0,1-120.32,285.92,802.24,802.24,0,0,1-351.92,289.81,795.45,795.45,0,0,1-150.08,46.59,808,808,0,0,1-322.46,0,795.2,795.2,0,0,1-285.92-120.32A802.24,802.24,0,0,1,263,1302.51a795.45,795.45,0,0,1-46.59-150.08,808,808,0,0,1,0-322.46A795.2,795.2,0,0,1,336.77,544.06,802.24,802.24,0,0,1,688.7,254.25a795.45,795.45,0,0,1,150.08-46.59A805.91,805.91,0,0,1,1000,191.41m0-40c-463.81,0-839.8,376-839.8,839.8S536.19,1831,1000,1831s839.8-376,839.8-839.8-376-839.8-839.8-839.8Z" transform="translate(-160.2 -151.41)"/><text class="cls-2" transform="translate(578.8 769.53)">M<tspan x="0" y="577">S</tspan></text></svg>